<svg width="16" height="16" viewBox="0 0 16 16" fill="none" xmlns="http://www.w3.org/2000/svg">
<path d="M8.54526 1.55407C8.58762 1.56447 8.58762 1.56447 8.63084 1.57508C8.94838 1.65379 9.26443 1.73824 9.58006 1.82437C9.67955 1.85146 9.77913 1.87819 9.87872 1.90491C9.94307 1.92241 10.0074 1.93992 10.0717 1.95746C10.1156 1.96916 10.1156 1.96916 10.1604 1.98111C10.6325 2.1112 11.0448 2.3444 11.3161 2.76756C11.5337 3.16328 11.597 3.60692 11.5039 4.05012C11.4275 4.28082 11.3163 4.44315 11.1056 4.56696C10.761 4.72436 10.4243 4.61677 10.0816 4.51091C9.97692 4.4735 9.97692 4.4735 9.90456 4.47649C9.94316 4.49718 9.94316 4.49718 9.98254 4.51828C10.3902 4.74409 10.7745 5.00991 11.09 5.35751C11.1163 5.38412 11.1427 5.41073 11.1699 5.43814C11.195 5.46345 11.2201 5.48876 11.2459 5.51484C11.2611 5.52867 11.2763 5.5425 11.2919 5.55675C12.0728 6.29227 12.4989 7.42901 12.6497 8.47254C12.6539 8.50097 12.658 8.5294 12.6623 8.5587C12.7481 9.30247 12.6557 10.052 12.4496 10.7672C12.4202 10.8723 12.3947 10.9781 12.369 11.0841C12.3843 11.0947 12.3996 11.1053 12.4154 11.1162C12.4479 11.1386 12.4479 11.1386 12.4811 11.1614C12.5053 11.1781 12.5295 11.1948 12.5544 11.212C12.6079 11.2489 12.6614 11.286 12.7148 11.3231C12.8448 11.4132 12.9751 11.5025 13.1078 11.5885C13.1302 11.6034 13.1526 11.6182 13.1758 11.6334C13.2177 11.661 13.2598 11.6882 13.3024 11.7148C13.4502 11.8133 13.5264 11.9223 13.5856 12.091C13.6118 12.2764 13.5641 12.4118 13.4608 12.563C13.3542 12.6705 13.2618 12.6988 13.1152 12.7085C12.8247 12.7048 12.582 12.5529 12.33 12.4214C12.2791 12.3955 12.2282 12.3698 12.1773 12.3441C12.0536 12.2815 11.9304 12.218 11.8074 12.1539C11.7098 12.2502 11.6304 12.3492 11.5501 12.4607C10.7378 13.5508 9.4799 14.2191 8.15949 14.429C7.90528 14.4626 7.64741 14.462 7.39142 14.4686C7.3416 14.4699 7.29178 14.4713 7.24196 14.4727C7.12086 14.476 6.99976 14.4792 6.87865 14.4823C6.86985 14.5176 6.86106 14.5528 6.85199 14.5891C6.8191 14.7204 6.78573 14.8516 6.75222 14.9828C6.73782 15.0395 6.72354 15.0962 6.70939 15.1529C6.68897 15.2347 6.66809 15.3164 6.64712 15.398C6.64094 15.4232 6.63477 15.4484 6.6284 15.4743C6.57596 15.6755 6.49973 15.8483 6.31714 15.9612C6.1498 16.0174 6.00195 16.0143 5.84142 15.9435C5.71669 15.8719 5.63935 15.787 5.59966 15.6465C5.57101 15.3302 5.6242 15.0084 5.66205 14.6947C5.66808 14.6434 5.67409 14.5921 5.68008 14.5407C5.69464 14.4163 5.70946 14.292 5.72444 14.1677C5.68924 14.1612 5.68924 14.1612 5.65333 14.1547C5.54068 14.1302 5.43929 14.0849 5.3345 14.0379C5.30152 14.0231 5.30152 14.0231 5.26787 14.0081C4.3746 13.6026 3.57886 12.9537 3.04167 12.1225C3.02915 12.1031 3.01662 12.0837 3.00372 12.0637C2.61976 11.4609 2.34727 10.7858 2.2306 10.0772C2.22425 10.0409 2.2179 10.0046 2.21135 9.96724C2.11966 9.35849 2.15435 8.7349 2.2306 8.12642C2.22308 8.14338 2.21556 8.16034 2.2078 8.17781C2.17289 8.25591 2.13741 8.33374 2.10193 8.41157C2.08419 8.45158 2.08419 8.45158 2.0661 8.49239C1.96929 8.70315 1.85453 8.92108 1.634 9.01924C1.61398 9.02857 1.59395 9.0379 1.57332 9.04751C1.33421 9.13832 1.11866 9.11083 0.889223 9.00744C0.517443 8.81004 0.284351 8.54061 0.10935 8.15789C0.0986936 8.13485 0.0880373 8.11181 0.0770582 8.08808C0.00949051 7.90803 0.00532394 7.72484 0.00211723 7.53449C0.00141855 7.50914 0.000719859 7.48379 0 7.45768C0.00142216 7.07834 0.160393 6.74255 0.325765 6.40962C0.361897 6.33558 0.397973 6.26151 0.433972 6.1874C0.443175 6.16852 0.452379 6.14964 0.461862 6.13019C0.52861 5.99282 0.593012 5.85448 0.656236 5.71542C0.665195 5.69575 0.674153 5.67607 0.683383 5.6558C0.726329 5.56134 0.769049 5.4668 0.811533 5.37213C1.06919 4.805 1.3482 4.41237 1.94388 4.18471C2.31545 4.06044 2.78445 4.0858 3.13526 4.25624C3.34104 4.36771 3.49861 4.53432 3.57199 4.75968C3.64554 5.16744 3.46299 5.5033 3.29123 5.86095C3.47628 5.65755 3.47628 5.65755 3.65192 5.44601C3.93607 5.11531 4.32882 4.83393 4.695 4.60235C4.58769 4.33653 4.47275 4.07553 4.35186 3.81573C4.32484 3.82587 4.29781 3.83601 4.26997 3.84646C4.07251 3.90686 3.86876 3.91679 3.68117 3.82556C3.45479 3.61435 3.45479 3.61435 3.44087 3.46421C3.43782 3.29495 3.44158 3.17254 3.54079 3.02911C3.66349 2.917 3.77836 2.83908 3.92878 2.7667C3.95695 2.75303 3.95695 2.75303 3.98569 2.7391C4.02526 2.71996 4.0649 2.70096 4.1046 2.68208C4.1638 2.65392 4.22281 2.62539 4.28179 2.59677C4.47631 2.50285 4.67213 2.41177 4.8695 2.3241C4.90382 2.30879 4.93814 2.29347 4.9735 2.2777C5.15433 2.21126 5.30442 2.21615 5.48463 2.27788C5.61333 2.36846 5.70503 2.46694 5.75563 2.62006C5.77321 2.79909 5.76586 2.94003 5.66205 3.09204C5.56559 3.19001 5.48099 3.26828 5.3501 3.31229C5.43282 3.59912 5.56474 3.86222 5.69324 4.13038C5.71269 4.12499 5.73214 4.1196 5.75217 4.11405C6.38463 3.93996 6.97247 3.86633 7.62733 3.8472C7.60784 3.8423 7.58836 3.83741 7.56829 3.83236C7.47867 3.80957 7.38923 3.78611 7.29978 3.76263C7.25382 3.7511 7.25382 3.7511 7.20693 3.73934C6.90956 3.66036 6.68079 3.54081 6.50431 3.28083C6.40261 3.08033 6.40898 2.82867 6.47031 2.61601C6.66359 2.12518 6.96652 1.80179 7.44016 1.58172C7.80954 1.44006 8.1695 1.46006 8.54526 1.55407ZM3.22884 5.89241C3.26004 5.95534 3.26004 5.95534 3.26004 5.95534L3.22884 5.89241ZM2.2618 8.00056C2.29299 8.06349 2.29299 8.06349 2.29299 8.06349L2.2618 8.00056Z" fill="#31A7FA"/>
<path d="M8.34481 4.94816C8.36746 4.95356 8.3901 4.95895 8.41343 4.96452C9.11045 5.13352 9.70661 5.44933 10.2477 5.92357C10.2681 5.94032 10.2885 5.95707 10.3095 5.97433C10.4509 6.09117 10.5687 6.22163 10.6844 6.36408C10.7082 6.39283 10.732 6.42159 10.7566 6.45122C11.5156 7.40225 11.7863 8.56345 11.6733 9.76776C11.6486 9.94808 11.6088 10.1227 11.5579 10.2972C11.5479 10.3317 11.5479 10.3317 11.5376 10.367C11.3286 11.061 10.9672 11.6677 10.4661 12.1851C10.4438 12.2095 10.4214 12.234 10.3984 12.2592C9.69669 13.0095 8.66079 13.4207 7.65036 13.4524C7.22814 13.4602 6.82121 13.455 6.41073 13.3493C6.38944 13.3441 6.36815 13.3388 6.34622 13.3334C5.25224 13.0604 4.35211 12.334 3.75246 11.3849C3.19387 10.4484 2.99934 9.26271 3.24444 8.19691C3.52774 7.06047 4.22701 6.06228 5.22532 5.45159C6.15996 4.90525 7.28655 4.68521 8.34481 4.94816Z" fill="#D8E6EA"/>
<path d="M8.54529 1.55407C8.57353 1.561 8.60177 1.56793 8.63087 1.57508C8.94841 1.65379 9.26445 1.73824 9.58008 1.82437C9.67958 1.85146 9.77916 1.87819 9.87875 1.90491C9.9431 1.92241 10.0074 1.93992 10.0718 1.95746C10.1156 1.96916 10.1156 1.96916 10.1604 1.98111C10.6325 2.1112 11.0449 2.3444 11.3162 2.76756C11.5337 3.16328 11.597 3.60692 11.5039 4.05012C11.4275 4.28082 11.3163 4.44315 11.1056 4.56696C10.7611 4.72436 10.4244 4.61677 10.0816 4.51091C9.97695 4.4735 9.97695 4.4735 9.90458 4.47649C9.93032 4.49028 9.95606 4.50407 9.98257 4.51828C10.3903 4.74409 10.7745 5.00991 11.09 5.35751C11.1164 5.38412 11.1427 5.41073 11.1699 5.43814C11.195 5.46345 11.2201 5.48876 11.246 5.51484C11.2611 5.52867 11.2763 5.5425 11.2919 5.55675C12.0728 6.29227 12.4989 7.42901 12.6497 8.47254C12.6539 8.50097 12.658 8.5294 12.6623 8.5587C12.7481 9.30247 12.6557 10.052 12.4496 10.7672C12.4202 10.8723 12.3947 10.9781 12.369 11.0841C12.3843 11.0947 12.3997 11.1053 12.4155 11.1162C12.448 11.1386 12.448 11.1386 12.4811 11.1614C12.5053 11.1781 12.5295 11.1948 12.5544 11.212C12.608 11.2489 12.6614 11.286 12.7149 11.3231C12.8448 11.4132 12.9751 11.5025 13.1078 11.5885C13.1302 11.6034 13.1527 11.6182 13.1758 11.6334C13.2177 11.661 13.2599 11.6882 13.3024 11.7148C13.4502 11.8133 13.5264 11.9223 13.5856 12.091C13.6118 12.2764 13.5642 12.4118 13.4608 12.563C13.3542 12.6705 13.2618 12.6988 13.1152 12.7085C12.8247 12.7048 12.582 12.5529 12.33 12.4214C12.2791 12.3955 12.2282 12.3698 12.1773 12.3441C12.0536 12.2815 11.9304 12.218 11.8075 12.1539C11.7099 12.2502 11.6304 12.3492 11.5501 12.4607C10.9892 13.2134 10.2216 13.7321 9.37427 14.1048C9.34552 14.118 9.31677 14.1313 9.28714 14.1449C9.2183 14.1677 9.2183 14.1677 9.12471 14.1362C9.15153 14.1175 9.17835 14.0988 9.20599 14.0796C9.73049 13.7101 10.1781 13.3028 10.5597 12.7832C10.5731 12.7649 10.5866 12.7466 10.6004 12.7278C10.9172 12.2899 11.1573 11.793 11.3084 11.2729C11.3245 11.2263 11.3407 11.1798 11.3571 11.1333C11.4506 10.8482 11.502 10.5563 11.5402 10.2592C11.5572 10.1448 11.5806 10.0338 11.6058 9.92103C11.6574 9.67253 11.6675 9.42832 11.6651 9.1746C11.665 9.14189 11.665 9.14189 11.6649 9.10853C11.6627 8.73851 11.6274 8.38878 11.5267 8.03203C11.521 8.01104 11.5154 7.99006 11.5095 7.96844C11.3439 7.36924 11.0184 6.80541 10.6221 6.33292C10.6061 6.31293 10.5901 6.29293 10.5736 6.27233C10.2921 5.92622 9.91544 5.66606 9.53609 5.44011C9.5141 5.42699 9.49211 5.41388 9.46945 5.40037C9.33699 5.32307 9.20416 5.25816 9.06232 5.20019C9.06232 5.17942 9.06232 5.15865 9.06232 5.13726C9.03945 5.12828 9.01657 5.11931 8.99301 5.11006C8.91584 5.07824 8.84204 5.04363 8.76755 5.00599C7.56074 4.40467 6.21813 4.21058 4.91242 4.61268C4.77278 4.64455 4.77278 4.64455 4.69503 4.60235C4.65531 4.53107 4.65531 4.53107 4.62094 4.43716C4.56368 4.28746 4.50288 4.14202 4.43572 3.99665C4.41976 3.9621 4.4038 3.92754 4.38735 3.89193C4.37565 3.86679 4.36394 3.84164 4.35189 3.81573C4.31135 3.83094 4.31135 3.83094 4.27 3.84646C4.07253 3.90686 3.86879 3.91679 3.6812 3.82556C3.45482 3.61435 3.45482 3.61435 3.4409 3.46421C3.43785 3.29495 3.44161 3.17254 3.54082 3.02911C3.66352 2.917 3.77839 2.83908 3.92881 2.7667C3.94759 2.75759 3.96636 2.74848 3.98571 2.7391C4.02529 2.71996 4.06493 2.70096 4.10463 2.68208C4.16383 2.65392 4.22284 2.62539 4.28182 2.59677C4.47634 2.50285 4.67216 2.41177 4.86953 2.3241C4.90385 2.30879 4.93817 2.29347 4.97353 2.2777C5.15436 2.21126 5.30444 2.21615 5.48465 2.27788C5.61336 2.36846 5.70506 2.46694 5.75566 2.62006C5.77324 2.79909 5.76589 2.94003 5.66207 3.09204C5.56562 3.19001 5.48102 3.26828 5.35013 3.31229C5.43285 3.59912 5.56476 3.86222 5.69327 4.13038C5.71272 4.12499 5.73216 4.1196 5.7522 4.11405C6.38466 3.93996 6.9725 3.86633 7.62735 3.8472C7.60787 3.8423 7.58839 3.83741 7.56832 3.83236C7.47869 3.80957 7.38926 3.78611 7.29981 3.76263C7.25385 3.7511 7.25385 3.7511 7.20695 3.73934C6.90958 3.66036 6.68081 3.54081 6.50434 3.28083C6.40264 3.08033 6.40901 2.82867 6.47034 2.61601C6.66362 2.12518 6.96655 1.80179 7.44019 1.58172C7.80957 1.44006 8.16952 1.46006 8.54529 1.55407Z" fill="#1C96F8"/>
<path d="M3.24054 4.3128C3.4194 4.46314 3.54039 4.61097 3.59014 4.84439C3.61791 5.22177 3.44416 5.52008 3.28115 5.84921C3.19178 6.02975 3.10528 6.2117 3.01828 6.39342C2.99988 6.43162 2.98148 6.46982 2.96308 6.50802C2.82228 6.80079 2.68727 7.09599 2.55425 7.39243C2.53461 7.43614 2.51496 7.47985 2.49531 7.52355C2.41105 7.7112 2.32709 7.89897 2.24392 8.08711C2.2027 8.18015 2.16104 8.27299 2.11947 8.36588C2.10499 8.39904 2.09051 8.43221 2.07559 8.46638C1.97639 8.68697 1.86507 8.91592 1.634 9.01877C1.61398 9.0281 1.59395 9.03743 1.57332 9.04704C1.33421 9.13785 1.11866 9.11036 0.889223 9.00697C0.517443 8.80958 0.284351 8.54015 0.10935 8.15742C0.0986935 8.13438 0.0880373 8.11135 0.0770582 8.08761C0.00949051 7.90756 0.00532394 7.72438 0.00211723 7.53402C0.00141855 7.50868 0.000719859 7.48333 0 7.45721C0.00142216 7.07787 0.160393 6.74208 0.325765 6.40915C0.361897 6.33511 0.397973 6.26104 0.433972 6.18693C0.443175 6.16805 0.452379 6.14917 0.461861 6.12972C0.528609 5.99235 0.593012 5.85401 0.656236 5.71496C0.665194 5.69528 0.674153 5.6756 0.683383 5.65533C0.726329 5.56088 0.769049 5.46633 0.811533 5.37166C1.06919 4.80453 1.3482 4.4119 1.94388 4.18424C2.36708 4.04271 2.85353 4.10317 3.24054 4.3128Z" fill="#8CC9FC"/>
<path d="M8.54525 1.55407C8.57349 1.561 8.60173 1.56793 8.63082 1.57508C8.94836 1.65379 9.26441 1.73824 9.58004 1.82437C9.67953 1.85146 9.77912 1.87819 9.87871 1.90491C9.94305 1.92241 10.0074 1.93992 10.0717 1.95746C10.101 1.96526 10.1302 1.97307 10.1604 1.98111C10.6325 2.1112 11.0448 2.3444 11.3161 2.76756C11.5337 3.16328 11.5969 3.60692 11.5039 4.05012C11.4274 4.28082 11.3163 4.44315 11.1055 4.56696C10.7841 4.71205 10.447 4.62787 10.1229 4.53156C10.0871 4.52138 10.0513 4.5112 10.0145 4.50071C9.81529 4.44367 9.61707 4.38372 9.41956 4.32114C9.00304 4.19187 8.58258 4.07911 8.15933 3.97478C8.10968 3.96248 8.10968 3.96248 8.05902 3.94994C7.89111 3.9084 7.72312 3.86727 7.55495 3.82679C7.4917 3.81124 7.42845 3.79567 7.3652 3.78009C7.33653 3.77334 7.30786 3.76659 7.27832 3.75964C6.95835 3.6799 6.69399 3.5603 6.50429 3.28083C6.40133 3.08215 6.40929 2.82754 6.4703 2.61601C6.66358 2.12518 6.9665 1.80179 7.44014 1.58172C7.80952 1.44006 8.16948 1.46006 8.54525 1.55407Z" fill="#8CC9FC"/>
<path d="M8.34478 4.94845C8.37875 4.95655 8.37875 4.95655 8.4134 4.96482C9.11041 5.13382 9.70657 5.44963 10.2477 5.92387C10.2681 5.94062 10.2884 5.95737 10.3095 5.97463C10.4509 6.09147 10.5686 6.22193 10.6844 6.36438C10.7082 6.39313 10.732 6.42189 10.7565 6.45152C11.5156 7.40255 11.7862 8.56375 11.6733 9.76805C11.6486 9.94838 11.6087 10.123 11.5579 10.2975C11.5512 10.3205 11.5445 10.3435 11.5376 10.3673C11.3286 11.0613 10.9671 11.668 10.466 12.1854C10.4437 12.2098 10.4214 12.2343 10.3984 12.2595C9.99152 12.6945 9.36695 13.1252 8.78151 13.2552C8.76092 13.2448 8.74033 13.2344 8.71912 13.2237C8.74216 13.2069 8.7652 13.1901 8.78894 13.1728C9.57618 12.5897 10.1304 11.8298 10.4173 10.8855C10.4283 10.8495 10.4283 10.8495 10.4395 10.8128C10.7205 9.82284 10.6023 8.6969 10.1541 7.7803C10.1447 7.76069 10.1352 7.74107 10.1255 7.72087C9.61817 6.67676 8.71299 5.9632 7.63899 5.58365C7.23639 5.44747 6.84515 5.40482 6.42324 5.40812C6.34631 5.40863 6.26944 5.40812 6.19251 5.40752C5.91851 5.40724 5.67189 5.42657 5.40582 5.49766C5.32027 5.51455 5.27494 5.51296 5.19409 5.48336C5.67333 5.16311 6.22264 4.98654 6.78503 4.88552C6.81833 4.87948 6.85162 4.87344 6.88593 4.86721C7.37081 4.81293 7.87089 4.83071 8.34478 4.94845Z" fill="#C4D2DD"/>
<path d="M6.37953 6.14377C6.53091 6.22561 6.60062 6.3052 6.67783 6.45842C6.68796 6.47839 6.69808 6.49836 6.70852 6.51893C6.86034 6.82314 6.9993 7.13399 7.14006 7.44352C7.20506 7.58632 7.27083 7.72874 7.33695 7.87102C7.36491 7.93131 7.39287 7.9916 7.42083 8.0519C7.44748 8.10931 7.47423 8.16668 7.50099 8.22404C7.52516 8.27629 7.52516 8.27629 7.54983 8.3296C7.56407 8.36024 7.57832 8.39089 7.593 8.42246C7.62733 8.50364 7.62733 8.50364 7.64318 8.57547C7.64824 8.5933 7.65331 8.61113 7.65852 8.6295C7.71004 8.65164 7.76209 8.67252 7.8145 8.69243C7.94588 8.82323 8.01422 8.96448 8.02116 9.15064C8.01048 9.33803 7.95259 9.48663 7.82973 9.62753C7.7833 9.66784 7.7833 9.66784 7.72091 9.66784C7.71568 9.68612 7.71044 9.7044 7.70505 9.72324C7.60938 10.0517 7.49379 10.3729 7.37903 10.6949C7.35215 10.7707 7.32553 10.8466 7.29919 10.9227C7.26087 11.0331 7.22169 11.1433 7.18231 11.2534C7.17077 11.2872 7.15922 11.321 7.14733 11.3559C7.06535 11.5811 6.97028 11.7298 6.75387 11.8389C6.60601 11.8571 6.50057 11.8538 6.36783 11.7819C6.17047 11.616 6.17047 11.616 6.15388 11.4524C6.14763 11.2146 6.19865 11.0268 6.2818 10.8057C6.29412 10.7717 6.30643 10.7376 6.31912 10.7025C6.35824 10.5947 6.39812 10.4872 6.43802 10.3797C6.4646 10.3069 6.49112 10.234 6.51759 10.1611C6.7012 9.65686 6.7012 9.65686 6.75656 9.52296C6.85492 9.26289 6.81023 8.97409 6.70433 8.72559C6.64391 8.59493 6.57942 8.46664 6.51406 8.33845C6.48687 8.28333 6.45978 8.22816 6.4328 8.17293C6.37878 8.06256 6.32435 7.95242 6.2696 7.84241C6.16902 7.63937 6.07427 7.43371 5.98047 7.22741C5.93976 7.1379 5.89873 7.04854 5.85775 6.95915C5.83817 6.9163 5.83817 6.9163 5.81819 6.87258C5.79794 6.82864 5.77712 6.78495 5.75563 6.7416C5.73941 6.5485 5.75785 6.42223 5.88041 6.26963C6.02713 6.13222 6.18621 6.10334 6.37953 6.14377Z" fill="#FA3C83"/>
<path d="M3.24055 4.31262C3.41941 4.46296 3.5404 4.61079 3.59015 4.84421C3.61792 5.22159 3.44417 5.5199 3.28116 5.84902C3.19179 6.02957 3.10529 6.21152 3.01829 6.39324C2.99989 6.43144 2.98149 6.46964 2.96309 6.50784C2.82229 6.80061 2.68728 7.09581 2.55426 7.39225C2.53462 7.43596 2.51497 7.47966 2.49532 7.52337C2.41106 7.71101 2.3271 7.89878 2.24394 8.08693C2.20271 8.17997 2.16105 8.27281 2.11948 8.36569C2.105 8.39886 2.09052 8.43203 2.0756 8.4662C1.9764 8.68679 1.86508 8.91574 1.63401 9.01859C1.61399 9.02792 1.59396 9.03725 1.57333 9.04686C1.33032 9.13915 1.12479 9.10018 0.889233 9.00679C0.868644 8.99641 0.848056 8.98603 0.826843 8.97533C0.846848 8.84223 0.891988 8.73465 0.949186 8.61336C0.95842 8.59364 0.967655 8.57392 0.977169 8.5536C1.00749 8.48892 1.03805 8.42436 1.0686 8.3598C1.08995 8.31435 1.11127 8.2689 1.13257 8.22344C1.16522 8.15378 1.19788 8.08412 1.2306 8.01448C1.3318 7.7991 1.43142 7.58299 1.53068 7.36668C1.63509 7.13937 1.73971 6.91215 1.84507 6.68527C2.08468 6.16994 2.08468 6.16994 2.31835 5.65185C2.32832 5.62951 2.33828 5.60718 2.34855 5.58417C2.44404 5.36671 2.50006 5.16043 2.42071 4.92791C2.29802 4.66216 2.13806 4.54191 1.87078 4.43799C1.79361 4.41282 1.7177 4.3958 1.63791 4.38145C1.63791 4.36068 1.63791 4.33992 1.63791 4.31852C1.69765 4.29284 1.75746 4.26731 1.81728 4.24183C1.85058 4.22759 1.88387 4.21335 1.91818 4.19868C2.33876 4.03108 2.85136 4.1018 3.24055 4.31262Z" fill="#64B9FC"/>
<path d="M14.4902 0.00815896C14.5506 0.0592894 14.5506 0.0592894 14.5838 0.134019C14.5706 0.281865 14.5246 0.395331 14.4595 0.527576C14.4456 0.556212 14.4456 0.556212 14.4314 0.585427C14.4018 0.646151 14.3719 0.706708 14.342 0.76725C14.303 0.846576 14.2642 0.925977 14.2255 1.00545C14.2161 1.02472 14.2067 1.04399 14.1971 1.06384C14.1102 1.2437 14.0334 1.42712 13.9599 1.61287C13.9748 1.62779 13.9898 1.64271 14.0052 1.65808C14.0727 1.72553 14.1401 1.79309 14.2075 1.86066C14.231 1.88414 14.2546 1.90762 14.2788 1.93182C14.3013 1.95433 14.3237 1.97684 14.3468 2.00004C14.3779 2.03118 14.3779 2.03118 14.4096 2.06295C14.478 2.13682 14.4897 2.17612 14.5058 2.27757C14.4896 2.40382 14.4823 2.42162 14.4027 2.50957C14.3728 2.5426 14.3728 2.5426 14.3423 2.57631C14.1997 2.72792 14.0549 2.87726 13.9091 3.02572C13.8919 3.04315 13.8748 3.06059 13.8572 3.07855C13.7669 3.17049 13.6764 3.26232 13.5859 3.35408C13.5113 3.42976 13.4369 3.50566 13.3627 3.58177C13.2726 3.67422 13.1821 3.76627 13.0913 3.85806C13.057 3.89294 13.0227 3.92795 12.9886 3.9631C12.941 4.01212 12.8929 4.06063 12.8447 4.10904C12.8039 4.15055 12.8039 4.15055 12.7623 4.19291C12.6688 4.26527 12.6109 4.28394 12.4937 4.28739C12.4628 4.26662 12.432 4.24585 12.4001 4.22446C12.3807 4.0543 12.417 3.94163 12.4902 3.78948C12.4995 3.76973 12.5088 3.74999 12.5184 3.72965C12.5481 3.66692 12.5784 3.60449 12.6087 3.54206C12.648 3.46007 12.6871 3.37798 12.7261 3.29587C12.7356 3.27602 12.7451 3.25618 12.7548 3.23572C12.8411 3.05422 12.9186 2.86948 12.9928 2.68268C12.979 2.66887 12.9651 2.65507 12.9509 2.64085C12.8881 2.57818 12.8254 2.51539 12.7628 2.45259C12.741 2.43087 12.7192 2.40915 12.6967 2.38677C12.6758 2.36578 12.6549 2.34479 12.6334 2.32316C12.6141 2.30389 12.5948 2.28461 12.5749 2.26474C12.4996 2.18332 12.4643 2.12651 12.445 2.01601C12.488 1.7222 12.8468 1.46969 13.0505 1.26184C13.0679 1.24402 13.0854 1.2262 13.1034 1.20784C13.1955 1.11388 13.2878 1.02005 13.3801 0.926295C13.4563 0.848909 13.5322 0.771262 13.6078 0.693381C13.6997 0.598826 13.792 0.504739 13.8847 0.410971C13.9198 0.375302 13.9547 0.339472 13.9895 0.303478C14.038 0.25332 14.0871 0.203787 14.1363 0.15436C14.1641 0.126053 14.1918 0.0977457 14.2204 0.0685806C14.3196 -0.00394038 14.3703 -0.00885285 14.4902 0.00815896Z" fill="#FFD395"/>
<path d="M15.9252 3.28046C15.9876 3.34339 15.9876 3.34339 16 3.44639C15.9849 3.58948 15.9466 3.63548 15.8511 3.74063C15.8223 3.77334 15.7935 3.80612 15.7648 3.83896C15.75 3.85571 15.7352 3.87246 15.7199 3.88972C15.634 3.98965 15.556 4.0958 15.4771 4.20138C15.416 4.28282 15.3537 4.36197 15.2875 4.43937C15.2644 4.46643 15.2413 4.49348 15.2175 4.52136C15.1864 4.55634 15.1864 4.55634 15.1547 4.59203C15.1072 4.66374 15.1072 4.66374 15.1134 4.75267C15.163 4.9096 15.2551 5.03383 15.3479 5.16805C15.4396 5.30729 15.4894 5.40493 15.4573 5.5774C15.344 5.73075 15.1783 5.81562 15.0167 5.90974C14.9602 5.94328 14.9037 5.97688 14.8473 6.01053C14.8188 6.0275 14.7903 6.04448 14.7609 6.06197C14.6355 6.13755 14.5121 6.21609 14.3889 6.29519C14.1202 6.46744 13.8504 6.63782 13.5803 6.8077C13.5499 6.82685 13.5195 6.846 13.4881 6.86574C13.461 6.88278 13.4339 6.89982 13.406 6.91737C13.3509 6.95237 13.2966 6.98839 13.2424 7.02478C13.1294 7.01692 13.1294 7.01692 13.0241 6.99332C12.9779 6.90012 12.9796 6.84569 12.9929 6.7416C13.0446 6.65418 13.1097 6.58002 13.1762 6.50364C13.2135 6.45907 13.2509 6.41445 13.2881 6.3698C13.3068 6.34769 13.3254 6.32558 13.3447 6.30279C13.4219 6.20993 13.4953 6.11436 13.568 6.0179C13.5927 5.98534 13.6173 5.95277 13.6427 5.91921C13.7281 5.80555 13.8131 5.69171 13.8975 5.5774C13.8048 5.40284 13.7109 5.23105 13.6051 5.06413C13.5517 4.97426 13.5231 4.91612 13.5017 4.81241C13.5597 4.58399 13.8318 4.46774 14.0165 4.3542C14.084 4.31217 14.1516 4.27013 14.2191 4.22809C14.2537 4.20667 14.2883 4.18524 14.3239 4.16317C14.4562 4.08092 14.5879 3.99769 14.7195 3.91436C14.8128 3.85539 14.9062 3.7967 14.9996 3.73805C15.1141 3.66611 15.2281 3.59342 15.3418 3.52001C15.392 3.48801 15.4422 3.45601 15.4924 3.42402C15.5259 3.40198 15.5259 3.40198 15.5601 3.37949C15.6851 3.30048 15.7727 3.25649 15.9252 3.28046Z" fill="#FFD395"/>
<path d="M9.7486 1.896C10.3521 1.99404 10.8924 2.18825 11.2714 2.69552C11.5304 3.09812 11.602 3.5824 11.5039 4.04974C11.4275 4.28045 11.3163 4.44277 11.1056 4.56658C10.7746 4.71565 10.4304 4.62239 10.0976 4.52332C10.0607 4.51281 10.0239 4.50231 9.98592 4.49148C9.89627 4.46586 9.80678 4.43976 9.71741 4.41319C9.71741 4.40281 9.71741 4.39242 9.71741 4.38172C9.7355 4.37864 9.7536 4.37556 9.77224 4.37238C9.97103 4.334 10.104 4.27255 10.2516 4.12804C10.4906 3.75045 10.516 3.27101 10.4517 2.83736C10.356 2.48582 10.1603 2.16178 9.84414 1.97662C9.81261 1.9604 9.78108 1.94418 9.7486 1.92746C9.7486 1.91708 9.7486 1.90669 9.7486 1.896Z" fill="#65B9FC"/>
<path d="M5.48459 2.27767C5.6133 2.36824 5.705 2.46673 5.7556 2.61985C5.77318 2.79888 5.76583 2.93982 5.66201 3.09182C5.5289 3.24493 5.37512 3.31628 5.1897 3.38914C5.02942 3.45267 4.87318 3.52543 4.71642 3.59723C4.687 3.61056 4.65758 3.6239 4.62727 3.63763C4.50255 3.69474 4.38149 3.75169 4.26482 3.82424C4.10773 3.90925 3.9641 3.90258 3.79032 3.87845C3.63378 3.80232 3.52517 3.68968 3.44717 3.53233C3.42979 3.34489 3.4309 3.18773 3.54076 3.02889C3.66346 2.91678 3.77833 2.83887 3.92875 2.76648C3.94752 2.75737 3.9663 2.74827 3.98565 2.73888C4.02523 2.71975 4.06487 2.70075 4.10457 2.68186C4.16377 2.6537 4.22278 2.62517 4.28176 2.59656C4.47627 2.50263 4.6721 2.41155 4.86947 2.32388C4.90379 2.30857 4.93811 2.29326 4.97347 2.27748C5.1543 2.21104 5.30438 2.21594 5.48459 2.27767Z" fill="#FBA62F"/>
<path d="M6.81623 9.38477C6.87345 9.4396 6.92074 9.49386 6.9683 9.55782C7.06362 9.67093 7.14179 9.72582 7.29012 9.7412C7.34218 9.73999 7.34218 9.73999 7.39528 9.73875C7.43007 9.73826 7.46485 9.73777 7.50069 9.73727C7.57984 9.73197 7.64499 9.72004 7.72088 9.69941C7.63668 9.95031 7.55053 10.2005 7.46345 10.4504C7.43903 10.5206 7.41479 10.591 7.39055 10.6613C7.34756 10.7857 7.30378 10.9099 7.25953 11.0339C7.24225 11.0827 7.22521 11.1315 7.2084 11.1805C7.02962 11.6999 7.02962 11.6999 6.75384 11.839C6.60598 11.8572 6.50054 11.8539 6.3678 11.782C6.17038 11.6161 6.17038 11.6161 6.15389 11.4525C6.14775 11.2155 6.19797 11.0284 6.28067 10.8081C6.29292 10.7742 6.30516 10.7402 6.31777 10.7053C6.35668 10.5979 6.39635 10.4909 6.43604 10.3838C6.46235 10.3114 6.48861 10.2391 6.51482 10.1667C6.71577 9.61421 6.71577 9.61421 6.81623 9.38477Z" fill="#FA3B82"/>
<path d="M12.3066 11.084C12.4522 11.1337 12.5663 11.2137 12.6906 11.3023C12.7349 11.3336 12.7791 11.3649 12.8233 11.3962C12.846 11.4122 12.8687 11.4283 12.8921 11.4448C12.9609 11.4925 13.0306 11.5385 13.1009 11.584C13.1233 11.5987 13.1457 11.6135 13.1688 11.6287C13.2115 11.6568 13.2544 11.6844 13.2976 11.7115C13.4475 11.8113 13.5259 11.9195 13.5856 12.0909C13.6118 12.2762 13.5641 12.4117 13.4608 12.5628C13.354 12.6705 13.2618 12.6986 13.1151 12.7081C12.8511 12.7046 12.6363 12.5825 12.4063 12.4636C12.3312 12.4248 12.2557 12.3871 12.18 12.3495C12.132 12.3253 12.0841 12.3012 12.0362 12.2769C12.0136 12.2656 11.9911 12.2542 11.9678 12.2425C11.8111 12.1612 11.8111 12.1612 11.7762 12.0909C11.8209 12.0081 11.8673 11.9288 11.9166 11.849C12.0657 11.6015 12.1911 11.3489 12.3066 11.084Z" fill="#FBC16C"/>
<path d="M5.72442 14.167C5.75628 14.1753 5.78815 14.1835 5.82099 14.192C6.07359 14.257 6.32566 14.3167 6.58228 14.3636C6.61127 14.3691 6.64026 14.3745 6.67013 14.3801C6.73961 14.3931 6.8091 14.406 6.87863 14.4187C6.83822 14.5973 6.79645 14.7755 6.75385 14.9536C6.7465 14.9844 6.73915 15.0152 6.73158 15.0469C6.70824 15.1438 6.68432 15.2404 6.66026 15.3371C6.65288 15.3679 6.6455 15.3987 6.63789 15.4305C6.58214 15.6511 6.51925 15.8355 6.31712 15.9605C6.14977 16.0168 6.00193 16.0136 5.8414 15.9428C5.71666 15.8712 5.63933 15.7863 5.59964 15.6458C5.57099 15.3295 5.62418 15.0077 5.66203 14.694C5.66806 14.6427 5.67407 14.5914 5.68006 14.54C5.69462 14.4157 5.70944 14.2913 5.72442 14.167Z" fill="#FBC16D"/>
<path d="M7.67816 8.60161C7.82829 8.69441 7.95186 8.80133 8.00169 8.97575C8.03314 9.19885 8.01037 9.38929 7.87691 9.57358C7.69354 9.74928 7.54153 9.78032 7.29261 9.77638C7.13529 9.75477 7.04803 9.68784 6.94106 9.57358C6.91532 9.54697 6.88959 9.52036 6.86307 9.49295C6.78171 9.30489 6.7757 9.09383 6.84272 8.8988C7.01449 8.58989 7.34802 8.46108 7.67816 8.60161Z" fill="#FBA530"/>
<path d="M5.48465 2.27752C5.61336 2.36809 5.70506 2.46658 5.75566 2.6197C5.77324 2.79873 5.76589 2.93967 5.66207 3.09167C5.50083 3.27714 5.2934 3.35237 5.06937 3.43778C5.00954 3.46194 4.94975 3.48619 4.89 3.51055C4.84582 3.52827 4.80163 3.54599 4.75742 3.56364C4.76695 3.54458 4.77648 3.52552 4.7863 3.50588C4.88258 3.31023 4.90401 3.1468 4.851 2.93435C4.79641 2.83059 4.72607 2.76382 4.62484 2.70426C4.50381 2.67374 4.38246 2.66153 4.2583 2.65116C4.39851 2.53906 4.55306 2.46935 4.71453 2.39354C4.74408 2.37896 4.77364 2.36438 4.80409 2.34936C5.03541 2.241 5.23792 2.193 5.48465 2.27752Z" fill="#F88924"/>
<path d="M5.31889 3.31201C5.37308 3.42722 5.42696 3.54258 5.48054 3.65808C5.49882 3.69737 5.51719 3.73662 5.53564 3.77583C5.56212 3.83211 5.58826 3.88855 5.61439 3.945C5.63815 3.99591 5.63815 3.99591 5.6624 4.04786C5.67258 4.075 5.68275 4.10214 5.69323 4.1301C5.65293 4.21138 5.62183 4.21543 5.5392 4.24871C5.51383 4.25915 5.48845 4.2696 5.46231 4.28036C5.43557 4.29113 5.40883 4.30189 5.38128 4.31299C5.19439 4.38842 5.01981 4.46862 4.84816 4.57536C4.78857 4.60207 4.78857 4.60207 4.69499 4.57061C4.65237 4.49921 4.65237 4.49921 4.60969 4.40566C4.59437 4.37212 4.57905 4.33858 4.56326 4.30402C4.53968 4.25102 4.53968 4.25102 4.51562 4.19696C4.49941 4.16188 4.48321 4.12679 4.46651 4.09065C4.34786 3.82749 4.34786 3.82749 4.38304 3.72106C4.46577 3.67279 4.46577 3.67279 4.57496 3.62236C4.59416 3.61341 4.61335 3.60447 4.63313 3.59525C4.67373 3.5764 4.71441 3.55771 4.75515 3.53917C4.81761 3.51073 4.87984 3.48181 4.94205 3.4528C5.24656 3.31201 5.24656 3.31201 5.31889 3.31201Z" fill="#1575F6"/>
</svg>
