<svg width="19" height="19" viewBox="0 0 19 19" fill="none" xmlns="http://www.w3.org/2000/svg">
<path fill-rule="evenodd" clip-rule="evenodd" d="M3.32937 3.32715C2.72011 3.93458 2.34982 4.90622 2.34982 6.38525V10.3733C2.34982 12.3021 2.74326 13.217 3.29288 13.6965C3.86798 14.1982 4.81286 14.4089 6.39989 14.4089H6.79989C7.05526 14.4089 7.29812 14.4878 7.4852 14.5803C7.66947 14.6714 7.88467 14.8176 8.04175 15.0304L9.23927 16.6223C9.38204 16.8121 9.51969 16.8496 9.59993 16.8496C9.68017 16.8496 9.81781 16.8121 9.96059 16.6223L11.1606 15.0271L11.1635 15.0233C11.4555 14.6402 11.9149 14.4089 12.4 14.4089H12.8C14.285 14.4089 15.2608 14.0392 15.8705 13.4314C16.4797 12.824 16.85 11.8523 16.85 10.3733V6.38525C16.85 4.90622 16.4797 3.93458 15.8705 3.32715C15.2608 2.71931 14.285 2.34961 12.8 2.34961H6.39989C4.91491 2.34961 3.93904 2.71931 3.32937 3.32715ZM2.27031 2.26489C3.26066 1.27752 4.68483 0.849609 6.39989 0.849609H12.8C14.515 0.849609 15.9392 1.27752 16.9296 2.26489C17.9203 3.25268 18.35 4.67386 18.35 6.38525V10.3733C18.35 12.0847 17.9203 13.5059 16.9296 14.4936C15.9392 15.481 14.515 15.9089 12.8 15.9089H12.4C12.3964 15.9089 12.3885 15.9099 12.3786 15.9149C12.369 15.9197 12.3617 15.926 12.357 15.9319L11.1593 17.5241C10.7741 18.0361 10.2157 18.3496 9.59993 18.3496C8.98416 18.3496 8.4258 18.0361 8.04057 17.5241L6.85084 15.9425L6.84293 15.9374C6.83646 15.9334 6.82892 15.9291 6.82059 15.925C6.80436 15.917 6.78997 15.9117 6.78023 15.9089H6.39989C4.78687 15.9089 3.33172 15.7209 2.3068 14.8268C1.2564 13.9104 0.849823 12.4325 0.849823 10.3733V6.38525C0.849823 4.67386 1.27954 3.25268 2.27031 2.26489ZM4.84982 6.38563C4.84982 5.97142 5.18561 5.63563 5.59982 5.63563H13.5999C14.0141 5.63563 14.3499 5.97142 14.3499 6.38563C14.3499 6.79985 14.0141 7.13563 13.5999 7.13563H5.59982C5.18561 7.13563 4.84982 6.79985 4.84982 6.38563ZM5.59982 9.62348C5.18561 9.62348 4.84982 9.95927 4.84982 10.3735C4.84982 10.7877 5.18561 11.1235 5.59982 11.1235H10.3999C10.8141 11.1235 11.1499 10.7877 11.1499 10.3735C11.1499 9.95927 10.8141 9.62348 10.3999 9.62348H5.59982Z" fill="white" fill-opacity="0.5"/>
</svg>
