<svg width="20" height="18" viewBox="0 0 20 18" fill="none" xmlns="http://www.w3.org/2000/svg">
<path fill-rule="evenodd" clip-rule="evenodd" d="M13.995 3.10264C14.2276 1.9607 13.5126 0.760698 12.4321 0.382447C11.9017 0.182207 11.3445 0.228742 10.8859 0.390909C10.4285 0.552674 9.99 0.857085 9.71739 1.27699L9.71654 1.27829L6.30833 6.49463C6.22864 6.61661 6.1862 6.75916 6.1862 6.90486V14.4335C6.1862 14.6619 6.29029 14.8778 6.46896 15.0201L9.01571 17.0484C9.31093 17.3317 9.7058 17.4958 10.0305 17.5913C10.3873 17.6961 10.7703 17.75 11.0944 17.75H14.2546C14.939 17.75 15.6138 17.49 16.1507 17.0859C16.6818 16.6861 17.1273 16.1076 17.3051 15.4085L19.291 9.19464C19.5648 8.39751 19.4706 7.58555 19.0226 6.96006C18.5738 6.33352 17.8342 5.98376 16.9991 5.98376H13.6725C13.6408 5.98376 13.6204 5.97162 13.6076 5.95673C13.6009 5.94885 13.593 5.93644 13.5873 5.91648C13.5819 5.89727 13.5767 5.86411 13.5833 5.81383L13.995 3.10264ZM10.9753 2.09405C11.0354 2.00132 11.1786 1.87843 11.386 1.80509C11.5889 1.73336 11.7746 1.73653 11.9056 1.78705C11.9144 1.79045 11.9233 1.79369 11.9323 1.79676C12.3334 1.93429 12.6069 2.42524 12.5236 2.8111C12.5203 2.82625 12.5175 2.8415 12.5152 2.85683L12.0994 5.5945L12.0993 5.5945L12.098 5.60397C11.9538 6.64247 12.707 7.48376 13.6725 7.48376H16.9991C17.4114 7.48376 17.6698 7.64731 17.8031 7.83352C17.9355 8.0183 18.0087 8.31456 17.8707 8.71214L17.8648 8.7298L15.8688 14.9751C15.8634 14.992 15.8586 15.0091 15.8545 15.0263C15.7779 15.3413 15.5628 15.651 15.2486 15.8875C14.933 16.125 14.5682 16.25 14.2546 16.25H11.0944C10.9195 16.25 10.6788 16.2184 10.4535 16.1521C10.2106 16.0808 10.086 15.9988 10.0521 15.9639C10.0299 15.9412 10.0064 15.9198 9.98153 15.9L7.6862 14.072V7.12816L10.9738 2.0964L10.9753 2.09405ZM1.75 6.04956C1.75 5.53021 1.86207 5.37845 1.91147 5.33153C1.97001 5.27595 2.14249 5.17407 2.66328 5.17407H3.49493C4.01572 5.17407 4.1882 5.27595 4.24674 5.33153C4.29614 5.37845 4.40821 5.53021 4.40821 6.04956V14.4337C4.40821 14.953 4.29614 15.1048 4.24674 15.1517C4.1882 15.2073 4.01572 15.3092 3.49493 15.3092H2.66328C2.14249 15.3092 1.97001 15.2073 1.91147 15.1517C1.86207 15.1048 1.75 14.953 1.75 14.4337V6.04956ZM2.66328 3.67407C2.01978 3.67407 1.36062 3.78607 0.878587 4.2438C0.387427 4.7102 0.25 5.37118 0.25 6.04956V14.4337C0.25 15.1121 0.387427 15.773 0.878587 16.2394C1.36062 16.6972 2.01978 16.8092 2.66328 16.8092H3.49493C4.13843 16.8092 4.79759 16.6972 5.27962 16.2394C5.77078 15.773 5.90821 15.1121 5.90821 14.4337V6.04956C5.90821 5.37118 5.77078 4.7102 5.27962 4.2438C4.79759 3.78607 4.13843 3.67407 3.49493 3.67407H2.66328Z" fill="white" fill-opacity="0.5"/>
</svg>
