<svg width="26" height="24" viewBox="0 0 26 24" fill="none" xmlns="http://www.w3.org/2000/svg">
<path d="M16.12 0.131334C16.4587 0.340839 16.6406 0.608342 16.7734 0.976713C16.7894 1.01885 16.8054 1.06098 16.8219 1.10439C16.8755 1.2466 16.9276 1.38932 16.9794 1.53219C16.9981 1.58325 17.0169 1.6343 17.0362 1.68691C17.1744 2.0636 17.3099 2.44123 17.4449 2.81908C17.5522 3.11926 17.6601 3.41923 17.768 3.71921C17.7863 3.76996 17.7863 3.76996 17.8049 3.82173C18.0562 4.52033 18.3128 5.2169 18.5705 5.91314C18.9492 6.93649 19.3205 7.96226 19.6884 8.98952C20.0572 10.0195 20.4315 11.0472 20.8111 12.0732C21.1585 13.0126 21.5003 13.9538 21.8382 14.8966C21.8551 14.9438 21.872 14.991 21.8895 15.0396C21.9223 15.1313 21.9551 15.2231 21.9878 15.3149C22.0663 15.5341 22.1463 15.7526 22.2297 15.97C22.2456 16.0119 22.2615 16.0538 22.278 16.097C22.3077 16.1749 22.3378 16.2526 22.3685 16.33C22.5227 16.7355 22.5749 17.1877 22.3966 17.5967C22.2332 17.8607 21.9971 18.1302 21.6983 18.2372C21.2832 18.3204 20.8872 18.3047 20.5174 18.0903C20.2878 17.9217 20.1337 17.7531 20.0697 17.4741C19.1726 17.3311 18.279 17.1912 17.3718 17.1307C17.3331 17.1279 17.2943 17.1252 17.2544 17.1223C15.9876 17.0342 14.7153 17.0819 13.4476 17.1307C13.4434 17.1805 13.4392 17.2303 13.4348 17.2817C13.3522 18.1339 13.0437 18.7673 12.3944 19.3376C12.2599 19.4445 12.1194 19.5378 11.9761 19.6323C11.9899 19.6602 12.0037 19.6881 12.0179 19.7169C12.1623 20.0088 12.3063 20.3009 12.45 20.5931C12.5036 20.7019 12.5574 20.8107 12.6112 20.9195C12.6888 21.0763 12.766 21.2333 12.8431 21.3904C12.879 21.4626 12.879 21.4626 12.9156 21.5363C13.134 21.9825 13.3235 22.3696 13.2024 22.8698C13.087 23.176 12.8736 23.3845 12.58 23.5186C12.4256 23.5792 12.2704 23.636 12.1141 23.6914C12.0337 23.7207 12.0337 23.7207 11.9517 23.7506C11.1084 24.0571 11.1084 24.0571 10.6977 23.8815C10.2678 23.6346 9.97928 23.1585 9.69175 22.7679C9.54568 22.5715 9.39626 22.3775 9.24758 22.183C8.98411 21.838 8.72254 21.4916 8.46275 21.1438C8.19682 20.7879 7.9264 20.4359 7.65278 20.0859C7.45514 19.8329 7.26118 19.5776 7.06975 19.3198C6.94618 19.1555 6.81822 18.9948 6.68902 18.8349C6.62943 18.7494 6.62943 18.7494 6.62943 18.6513C6.5884 18.6643 6.54736 18.6774 6.50508 18.6908C5.2185 19.0812 3.87371 19.0266 2.66504 18.4116C1.50148 17.7879 0.674142 16.8035 0.252686 15.561C0.241676 15.5294 0.230666 15.4977 0.219322 15.4651C-0.0635048 14.614 -0.0771005 13.5187 0.203634 12.667C0.21338 12.6365 0.223125 12.606 0.233166 12.5745C0.642872 11.3138 1.45774 10.2889 2.64551 9.67794C3.07448 9.47222 3.51379 9.30139 3.96232 9.14369C5.12612 8.73404 6.20451 8.19181 7.26711 7.56557C7.3053 7.54316 7.34349 7.52074 7.38284 7.49765C8.63982 6.75599 9.83569 5.91739 10.9593 4.98661C11.0358 4.92361 11.113 4.8615 11.1903 4.7995C11.5189 4.5359 11.828 4.2553 12.135 3.96727C12.225 3.88331 12.3156 3.80015 12.4064 3.71711C12.7907 3.36449 13.1505 3.00141 13.4967 2.61133C13.5366 2.56783 13.5765 2.52432 13.6176 2.4795C13.6923 2.39797 13.7663 2.31574 13.8393 2.23271C13.9013 2.16254 13.965 2.09379 14.0309 2.02731C14.2658 1.76824 14.2453 1.55144 14.2311 1.21201C14.2338 0.875097 14.3593 0.610101 14.582 0.361073C15.0339 -0.0465642 15.5715 -0.0789235 16.12 0.131334Z" fill="#D8D7E2"/>
<path d="M14.2815 1.6792C14.4204 1.74861 14.4242 1.82528 14.4758 1.97035C14.504 2.04871 14.504 2.04871 14.5328 2.12865C14.553 2.18621 14.5733 2.24377 14.5942 2.30308C14.6271 2.39475 14.6599 2.48642 14.6927 2.57809C14.7278 2.67637 14.7628 2.77471 14.7977 2.87307C14.8707 3.0788 14.9442 3.28436 15.0178 3.48987C15.0362 3.54139 15.0362 3.54139 15.0551 3.59395C15.08 3.66353 15.1049 3.73311 15.1298 3.80269C15.1675 3.90787 15.2051 4.01307 15.2428 4.11827C15.4594 4.72395 15.6805 5.32793 15.9033 5.93139C16.2431 6.85289 16.5784 7.77599 16.9118 8.69984C17.1601 9.38776 17.4102 10.0749 17.6644 10.7607C17.6885 10.8259 17.7127 10.8911 17.7368 10.9563C17.8765 11.3336 17.8765 11.3336 18.0169 11.7106C18.0808 11.8818 18.1444 12.0532 18.208 12.2246C18.227 12.2752 18.246 12.3258 18.2656 12.3779C18.3494 12.6045 18.4245 12.8174 18.451 13.0592C16.5437 14.1984 14.4805 14.9052 12.2796 15.2022C12.2364 15.2081 12.1931 15.2139 12.1485 15.22C11.4405 15.3097 10.7299 15.3272 10.0171 15.3279C9.95474 15.328 9.95474 15.328 9.89112 15.3281C9.22788 15.3279 8.58093 15.2965 7.92534 15.1873C7.81672 15.1701 7.70877 15.1576 7.59937 15.1466C7.43282 15.1234 7.31763 15.0985 7.16902 15.0213C7.09864 14.9059 7.09864 14.9059 7.04527 14.7619C7.02509 14.7088 7.00491 14.6556 6.98412 14.6009C6.9642 14.5454 6.94428 14.4899 6.92376 14.4327C6.9044 14.3807 6.88505 14.3287 6.86511 14.2751C6.80353 14.1082 6.74364 13.9407 6.68405 13.773C6.66151 13.7099 6.63896 13.6469 6.61638 13.5839C6.56863 13.4504 6.52097 13.317 6.47337 13.1835C6.3482 12.8325 6.22252 12.4817 6.09677 12.1309C6.08414 12.0956 6.0715 12.0604 6.05848 12.024C5.7674 11.212 5.46964 10.4025 5.16935 9.59386C5.14306 9.5228 5.14306 9.5228 5.11623 9.4503C5.08377 9.36256 5.05118 9.27487 5.01844 9.18723C4.91263 8.9009 4.91263 8.9009 4.91263 8.79173C4.95949 8.76999 4.95949 8.76999 5.0073 8.74781C5.78133 8.38699 6.53138 7.99903 7.26712 7.56543C7.30531 7.54301 7.3435 7.5206 7.38285 7.4975C8.63983 6.75584 9.8357 5.91725 10.9594 4.98647C11.0358 4.92346 11.113 4.86135 11.1903 4.79936C11.5189 4.53575 11.828 4.25516 12.135 3.96713C12.225 3.88317 12.3156 3.80001 12.4065 3.71696C12.7907 3.36435 13.1506 3.0013 13.4967 2.61119C13.536 2.56825 13.5754 2.52532 13.6159 2.48108C13.8516 2.22353 14.0718 1.95836 14.2815 1.6792Z" fill="#EFEFFB"/>
<path d="M4.96167 8.88987C5.01154 8.98497 5.01154 8.98497 5.05659 9.11224C5.07392 9.16028 5.09124 9.20832 5.1091 9.25782C5.1276 9.31091 5.1461 9.36401 5.16516 9.41872C5.19493 9.50189 5.19493 9.50189 5.2253 9.58675C5.26847 9.70758 5.31144 9.82846 5.35406 9.94947C5.42214 10.1427 5.491 10.3356 5.56003 10.5285C5.57168 10.5611 5.58333 10.5936 5.59534 10.6272C5.6191 10.6936 5.64287 10.76 5.66664 10.8264C5.70292 10.9279 5.73912 11.0294 5.77531 11.1308C5.99637 11.7503 6.22346 12.3675 6.45191 12.9843C6.84463 14.0448 7.23164 15.1072 7.61309 16.1718C7.63002 16.219 7.64695 16.2662 7.66439 16.3149C7.69719 16.4064 7.72996 16.4979 7.76272 16.5894C7.84256 16.8121 7.92335 17.0343 8.00581 17.256C8.02994 17.3209 8.02994 17.3209 8.05455 17.3871C8.08501 17.4688 8.1156 17.5504 8.14637 17.632C8.24815 17.9047 8.24815 17.9047 8.24815 18.0135C8.21711 18.0251 8.18607 18.0367 8.15409 18.0486C8.00761 18.1033 7.86116 18.158 7.71471 18.2128C7.66133 18.2327 7.60796 18.2526 7.55297 18.2732C7.26642 18.3805 6.98111 18.49 6.69714 18.6039C6.36752 18.7356 6.0523 18.8538 5.69745 18.8965C5.65862 18.9018 5.6198 18.9071 5.5798 18.9126C4.26933 19.0697 2.96312 18.7314 1.91432 17.9277C1.12886 17.2646 0.584428 16.539 0.252686 15.5609C0.236171 15.5134 0.236171 15.5134 0.219322 15.465C-0.0635048 14.6139 -0.0771005 13.5186 0.203634 12.6669C0.21338 12.6364 0.223125 12.6059 0.233166 12.5744C0.635732 11.3357 1.42491 10.3304 2.58189 9.71341C3.06203 9.46907 3.56113 9.28319 4.06674 9.09914C4.12976 9.07619 4.19273 9.05311 4.25565 9.02991C4.34488 8.99713 4.43436 8.96504 4.52384 8.93299C4.57624 8.91405 4.62864 8.89512 4.68263 8.87561C4.81451 8.84082 4.81451 8.84082 4.96167 8.88987Z" fill="#DF4A44"/>
<path d="M16.12 0.131109C16.4587 0.340614 16.6406 0.608117 16.7734 0.976488C16.7974 1.03969 16.7974 1.03969 16.8219 1.10416C16.8755 1.24637 16.9276 1.38909 16.9794 1.53196C16.9981 1.58302 17.0169 1.63408 17.0362 1.68668C17.1744 2.06338 17.3099 2.441 17.4449 2.81886C17.5522 3.11904 17.6601 3.41901 17.768 3.71899C17.7863 3.76973 17.7863 3.76973 17.8049 3.8215C18.0562 4.5201 18.3128 5.21667 18.5705 5.91291C18.9492 6.93626 19.3205 7.96203 19.6884 8.9893C20.0572 10.0192 20.4315 11.0469 20.8111 12.073C21.1585 13.0124 21.5003 13.9536 21.8382 14.8964C21.8551 14.9436 21.872 14.9908 21.8894 15.0394C21.9223 15.1311 21.9551 15.2229 21.9878 15.3146C22.0663 15.5339 22.1463 15.7524 22.2297 15.9698C22.2456 16.0117 22.2615 16.0536 22.278 16.0968C22.3077 16.1746 22.3378 16.2523 22.3685 16.3298C22.5227 16.7353 22.5749 17.1875 22.3966 17.5965C22.2332 17.8604 21.9971 18.13 21.6983 18.237C21.2832 18.3202 20.9009 18.2972 20.5249 18.1006C20.2276 17.8689 20.0708 17.6055 19.9545 17.2519C19.9403 17.2111 19.9262 17.1703 19.9116 17.1282C19.8807 17.0393 19.8503 16.9502 19.8201 16.861C19.7358 16.612 19.6488 16.3638 19.5623 16.1155C19.5439 16.0626 19.5256 16.0097 19.5066 15.9552C19.3133 15.3995 19.1093 14.8479 18.9046 14.2963C18.5097 13.2322 18.1223 12.1657 17.7397 11.0971C17.3797 10.0917 17.0156 9.08809 16.6452 8.08652C16.3256 7.22231 16.0091 6.35714 15.6979 5.48984C15.3837 4.61411 15.0669 3.73942 14.7475 2.86556C14.7271 2.80969 14.7067 2.75383 14.6857 2.69627C14.6282 2.53878 14.5706 2.38132 14.513 2.22386C14.4959 2.17713 14.4788 2.1304 14.4613 2.08225C14.3997 1.9143 14.3381 1.74687 14.2712 1.58101C14.1679 1.31911 14.2175 1.04852 14.3091 0.790052C14.46 0.451506 14.6701 0.240282 15.0081 0.0879966C15.4045 -0.0505446 15.7324 -0.0174809 16.12 0.131109Z" fill="#F7524B"/>
<path d="M4.96167 8.88984C5.01154 8.98493 5.01154 8.98493 5.05659 9.1122C5.07391 9.16024 5.09124 9.20827 5.10908 9.25776C5.12759 9.31086 5.14609 9.36397 5.16516 9.41868C5.18504 9.47423 5.20492 9.52977 5.2254 9.58699C5.26862 9.70791 5.31162 9.82888 5.35428 9.94999C5.42176 10.1415 5.48994 10.3328 5.5583 10.5241C5.56982 10.5563 5.58135 10.5885 5.59322 10.6217C5.61676 10.6876 5.6403 10.7534 5.66385 10.8193C5.69987 10.9201 5.73582 11.0209 5.77175 11.1217C5.93976 11.5925 6.11145 12.0619 6.2855 12.5306C6.30934 12.5949 6.33319 12.6592 6.35703 12.7234C6.44878 12.9706 6.54065 13.2178 6.63295 13.4647C6.6966 13.6351 6.7599 13.8056 6.82315 13.9761C6.84191 14.026 6.86066 14.0758 6.87999 14.1272C6.98343 14.4069 7.06232 14.6795 7.11995 14.9723C5.44529 14.8529 3.77246 13.8258 2.55813 12.7159C2.51734 12.6786 2.47656 12.6414 2.43454 12.603C1.98503 12.1724 1.58299 11.6429 1.28278 11.0972C1.28278 11.0648 1.28278 11.0324 1.28278 10.9991C1.18565 11.0638 1.08853 11.1286 0.988464 11.1953C1.22039 10.5045 2.04213 9.98489 2.65885 9.65637C3.08276 9.44675 3.53069 9.29051 3.9745 9.12897C4.01469 9.11425 4.05487 9.09952 4.09628 9.08435C4.21171 9.04231 4.32738 9.001 4.44318 8.95997C4.4784 8.94717 4.51362 8.93437 4.54991 8.92118C4.79747 8.83511 4.79747 8.83511 4.96167 8.88984Z" fill="#F6524B"/>
<path d="M11.4365 18.553C11.4488 18.5793 11.4611 18.6056 11.4737 18.6327C11.6962 19.1079 11.9215 19.5803 12.1692 20.0429C12.4498 20.5677 12.7053 21.1042 12.9571 21.6432C12.9798 21.691 13.0024 21.7388 13.0258 21.788C13.0478 21.8351 13.0699 21.8823 13.0926 21.9308C13.1224 21.9942 13.1224 21.9942 13.1529 22.0589C13.2611 22.3298 13.2891 22.5992 13.1993 22.8787C13.1554 22.974 13.1554 22.974 13.1043 23.0657C13.0879 23.0955 13.0715 23.1253 13.0546 23.156C12.8454 23.4576 12.5037 23.5523 12.172 23.6684C12.0773 23.7023 11.9841 23.7387 11.8908 23.7762C11.4858 23.9338 11.1164 24.0532 10.6977 23.8812C10.2686 23.6348 9.9805 23.16 9.69346 22.77C9.53856 22.5616 9.38051 22.3556 9.22303 22.1491C9.19021 22.106 9.15739 22.0629 9.12358 22.0184C9.0755 21.9554 9.0755 21.9554 9.02644 21.891C8.99516 21.8497 8.96388 21.8084 8.93165 21.7659C8.86768 21.6832 8.8022 21.6017 8.73534 21.5214C8.70368 21.483 8.67202 21.4446 8.63939 21.4051C8.61073 21.3713 8.58206 21.3375 8.55252 21.3027C8.47869 21.1767 8.48611 21.1154 8.51791 20.9749C8.94991 19.9211 9.74978 19.0992 10.7988 18.6511C11.02 18.563 11.1987 18.5435 11.4365 18.553Z" fill="#DDDDE9"/>
<path d="M13.4477 17.1302C13.3698 18.0454 13.0931 18.7228 12.3896 19.342C12.0832 19.5828 12.0832 19.5828 11.878 19.5828C11.8041 19.4297 11.7306 19.2764 11.6573 19.123C11.6362 19.0794 11.6151 19.0357 11.5935 18.9908C11.5735 18.949 11.5536 18.9073 11.5331 18.8643C11.5146 18.8258 11.4961 18.7872 11.477 18.7475C11.4365 18.6509 11.4365 18.6509 11.4365 18.5528C10.4827 18.7374 9.64658 19.245 9.08816 20.0458C8.87035 20.3772 8.66832 20.7259 8.54246 21.1035C8.35701 21.03 8.27725 20.93 8.16231 20.7693C8.12367 20.7161 8.08496 20.663 8.04619 20.6099C8.02427 20.5797 8.00234 20.5495 7.97975 20.5185C7.82891 20.3138 7.67315 20.1127 7.5185 19.9109C7.20051 19.4946 6.88784 19.0749 6.58038 18.6509C6.77877 18.4525 7.08923 18.3901 7.34989 18.2952C7.38336 18.283 7.41684 18.2709 7.45134 18.2583C9.02566 17.6885 10.6948 17.3896 12.3562 17.2038C12.3922 17.1998 12.4282 17.1958 12.4652 17.1916C12.7935 17.1556 13.1168 17.1263 13.4477 17.1302Z" fill="#C8C7D2"/>
<path d="M13.4476 17.1305C13.3698 18.0457 13.0931 18.723 12.3896 19.3422C12.0832 19.5831 12.0832 19.5831 11.878 19.5831C11.7379 19.2996 11.5982 19.0158 11.4588 18.7319C11.4114 18.6353 11.3638 18.5388 11.3161 18.4423C11.2476 18.3037 11.1796 18.165 11.1115 18.0263C11.0901 17.983 11.0686 17.9398 11.0465 17.8952C11.0269 17.855 11.0072 17.8147 10.987 17.7733C10.9696 17.7379 10.9521 17.7025 10.9342 17.666C10.8969 17.5719 10.8969 17.5719 10.8969 17.4248C11.4309 17.3341 11.9654 17.2577 12.5034 17.1949C12.5576 17.1884 12.6119 17.182 12.6678 17.1754C12.9295 17.1455 13.1842 17.1226 13.4476 17.1305Z" fill="#404049"/>
<path d="M23.7976 6.78035C23.93 6.86864 24.0204 6.93161 24.0919 7.07466C24.1112 7.24861 24.1094 7.34052 24.0168 7.49116C23.8668 7.64365 23.7103 7.70713 23.513 7.77768C23.476 7.79148 23.439 7.80529 23.4009 7.81951C23.3228 7.84843 23.2446 7.87698 23.1662 7.90518C23.047 7.9482 22.9284 7.9926 22.8097 8.03721C22.7335 8.06524 22.6573 8.09318 22.5811 8.12104C22.5283 8.14081 22.5283 8.14081 22.4745 8.16097C22.2553 8.23885 22.0714 8.27189 21.8355 8.25191C21.6671 8.15674 21.6049 8.09777 21.5412 7.91468C21.5412 7.71874 21.5799 7.63074 21.6884 7.46708C21.8118 7.38931 21.943 7.34493 22.0808 7.29846C22.1194 7.28455 22.158 7.27063 22.1978 7.25629C22.2798 7.22679 22.3619 7.19767 22.4442 7.16893C22.5725 7.12328 22.6995 7.07492 22.8265 7.02561C22.909 6.99392 22.9915 6.96224 23.0741 6.93057C23.1126 6.91553 23.1511 6.90048 23.1908 6.88498C23.3991 6.80688 23.5715 6.75381 23.7976 6.78035Z" fill="white"/>
<path d="M22.0808 3.00334C22.2569 3.10119 22.314 3.16534 22.3812 3.3559C22.3682 3.75444 22.0785 4.065 21.8482 4.37411C21.7667 4.4844 21.6869 4.59518 21.6083 4.70751C21.5865 4.73861 21.5646 4.76971 21.5421 4.80175C21.4993 4.86279 21.4567 4.92397 21.4143 4.98528C21.3168 5.12381 21.2425 5.21362 21.0998 5.30878C20.8877 5.33627 20.7909 5.33226 20.6123 5.21068C20.5086 5.0598 20.4795 4.97038 20.4846 4.78834C20.5435 4.52838 20.7263 4.32075 20.8821 4.11007C20.9166 4.06173 20.9512 4.01339 20.9868 3.96359C21.0884 3.82224 21.1917 3.68232 21.296 3.54291C21.3281 3.49991 21.3602 3.4569 21.3933 3.41259C21.7359 2.96195 21.7359 2.96195 22.0808 3.00334Z" fill="white"/>
<path d="M23.7416 10.456C23.7766 10.4652 23.8115 10.4745 23.8474 10.484C23.9205 10.5036 23.9935 10.5232 24.0665 10.543C24.178 10.5731 24.2897 10.6022 24.4014 10.6312C24.4727 10.6504 24.5441 10.6696 24.6154 10.689C24.6651 10.7017 24.6651 10.7017 24.7159 10.7147C24.9171 10.7707 25.0408 10.8344 25.1711 10.9992C25.2198 11.2026 25.2026 11.3844 25.1005 11.5663C24.7202 11.7797 24.2138 11.5684 23.822 11.459C23.7115 11.4283 23.6008 11.3989 23.4901 11.3696C23.4191 11.3502 23.3481 11.3307 23.2772 11.3111C23.2444 11.3025 23.2117 11.2938 23.1779 11.2849C22.9703 11.2258 22.8236 11.151 22.6694 10.9992C22.6135 10.8069 22.6003 10.7033 22.6786 10.5179C22.9549 10.1844 23.3728 10.357 23.7416 10.456Z" fill="white"/>
</svg>
