<svg width="17" height="18" viewBox="0 0 17 18" fill="none" xmlns="http://www.w3.org/2000/svg">
<path fill-rule="evenodd" clip-rule="evenodd" d="M5.76443 8.05955C5.86221 8.05046 5.96888 8.05046 6.05777 8.05955C8.17332 7.98686 9.85332 6.21503 9.86221 4.03432C9.86221 1.80817 8.09332 0 5.91554 0C3.72888 0 1.96888 1.80817 1.96888 4.03432C1.96888 6.21503 3.64888 7.98686 5.76443 8.05955ZM15.6134 4.9974C15.6134 3.24375 14.2268 1.8172 12.5023 1.8172L12.3868 8.17761C12.4668 8.16852 12.5468 8.16852 12.6179 8.17761C14.2801 8.114 15.6134 6.71471 15.6134 4.9974ZM1.61333 11.4124C-0.537778 12.8844 -0.537778 15.2832 1.61333 16.7461C4.05778 18.418 8.06666 18.418 10.5111 16.7461C12.6622 15.2741 12.6622 12.8753 10.5111 11.4124C8.07555 9.74965 4.06667 9.74965 1.61333 11.4124ZM15.96 15.5649C15.4622 15.9556 14.8578 16.2191 14.2178 16.3554L14.2444 10.9036C14.8755 11.049 15.4711 11.3034 15.96 11.685C17.3466 12.7481 17.3466 14.5018 15.96 15.5649Z" fill="white" fill-opacity="0.5"/>
</svg>
