<svg width="18" height="18" viewBox="0 0 18 18" fill="none" xmlns="http://www.w3.org/2000/svg">
<path fill-rule="evenodd" clip-rule="evenodd" d="M1.24403 8.16131C1.24403 4.34738 4.30736 1.25559 8.08617 1.25559C11.8649 1.25559 14.9283 4.34738 14.9283 8.16131C14.9283 11.9752 11.8649 15.067 8.08617 15.067C4.30736 15.067 1.24403 11.9752 1.24403 8.16131ZM8.08617 0C3.6203 0 0 3.65394 0 8.16131C0 12.6687 3.6203 16.3226 8.08617 16.3226C12.5521 16.3226 16.1723 12.6687 16.1723 8.16131C16.1723 3.65394 12.5521 0 8.08617 0ZM14.4512 14.7356C14.8015 14.2446 15.3757 13.9906 16.0138 13.9954C16.7695 13.9961 17.4817 14.2604 17.8211 14.9003C18.1608 15.5405 17.9838 16.286 17.566 16.9209C17.1264 17.5888 16.4846 18.0884 15.7337 17.9869C14.9826 17.8852 14.4935 17.2327 14.2431 16.4696C14.0428 15.8578 14.1011 15.226 14.4512 14.7356ZM15.8989 16.7424C15.8455 16.7351 15.6132 16.6512 15.4241 16.0751L16.5297 16.2263C16.1981 16.7301 15.9524 16.7496 15.8989 16.7424ZM15.4241 16.0751L16.5297 16.2263C16.8169 15.7898 16.7601 15.5601 16.7245 15.493C16.6891 15.4263 16.5317 15.251 16.0112 15.251H16.0057C15.6996 15.2483 15.5369 15.3625 15.4606 15.4694C15.3835 15.5774 15.3258 15.7747 15.4241 16.0751Z" fill="white" fill-opacity="0.25"/>
</svg>
