<svg width="16" height="16" viewBox="0 0 16 16" fill="none" xmlns="http://www.w3.org/2000/svg">
<path fill-rule="evenodd" clip-rule="evenodd" d="M5.76739 0C3.85189 0 2.36585 0.379685 1.37276 1.37278C0.379681 2.36587 0 3.85193 0 5.76744V10.2326C0 12.1481 0.379681 13.6342 1.37276 14.6272C2.36585 15.6203 3.85189 16 5.76739 16H10.2325C12.148 16 13.634 15.6203 14.6271 14.6272C15.6202 13.6342 15.9999 12.1481 15.9999 10.2326V8.74419C15.9999 8.43594 15.75 8.18605 15.4417 8.18605C15.1335 8.18605 14.8836 8.43594 14.8836 8.74419V10.2326C14.8836 12.038 14.5191 13.1565 13.8378 13.8379C13.1564 14.5192 12.0378 14.8837 10.2325 14.8837H5.76739C3.96199 14.8837 2.8434 14.5192 2.16209 13.8379C1.48077 13.1565 1.11627 12.038 1.11627 10.2326V5.76744C1.11627 3.96202 1.48077 2.84343 2.16209 2.16211C2.8434 1.48078 3.96199 1.11628 5.76739 1.11628H7.25575C7.56399 1.11628 7.81388 0.866389 7.81388 0.55814C7.81388 0.249887 7.56399 0 7.25575 0H5.76739ZM11.3117 0.55814C11.3117 0.249887 11.5616 0 11.8698 0H15.4419C15.7501 0 16 0.249887 16 0.55814V4.13023C16 4.43848 15.7501 4.68837 15.4419 4.68837C15.1336 4.68837 14.8837 4.43848 14.8837 4.13023V1.9055L9.13874 7.65053C8.92077 7.8685 8.56744 7.8685 8.34947 7.65053C8.1315 7.43256 8.1315 7.07915 8.34947 6.86119L14.0943 1.11628H11.8698C11.5616 1.11628 11.3117 0.866389 11.3117 0.55814Z" fill="white" fill-opacity="0.5"/>
</svg>
