<svg width="16" height="16" viewBox="0 0 16 16" fill="none" xmlns="http://www.w3.org/2000/svg">
<path d="M8.57115 0.120971C9.01286 0.381814 9.18409 0.874238 9.3919 1.31875C9.41862 1.37553 9.44536 1.43229 9.47212 1.48905C9.5276 1.60676 9.583 1.72451 9.63833 1.84229C9.75476 2.08995 9.87236 2.33706 9.9899 2.5842C10.0525 2.71597 10.115 2.84779 10.1775 2.97961C10.2694 3.17333 10.3615 3.36695 10.4539 3.56046C10.5078 3.67364 10.5617 3.78686 10.6156 3.90009C10.6412 3.95401 10.667 4.00792 10.6927 4.0618C10.7282 4.13598 10.7635 4.21025 10.7988 4.28453C10.8189 4.32674 10.8391 4.36894 10.8598 4.41243C10.9028 4.51134 10.9028 4.51134 10.9028 4.58259C10.9265 4.58373 10.9503 4.58487 10.9748 4.58605C11.392 4.6118 11.8031 4.67857 12.2159 4.74135C12.2979 4.75374 12.3799 4.76613 12.4619 4.77851C12.633 4.80441 12.804 4.83045 12.9751 4.85658C13.1935 4.88992 13.4121 4.92271 13.6307 4.95536C13.7998 4.98071 13.9688 5.00645 14.1377 5.03229C14.2183 5.04455 14.2989 5.05666 14.3794 5.06863C14.4923 5.08542 14.605 5.10276 14.7177 5.12023C14.7669 5.12737 14.7669 5.12737 14.8171 5.13465C15.198 5.19505 15.5171 5.32054 15.7733 5.61562C15.9871 5.95825 16.0236 6.2889 15.9882 6.68427C15.8834 7.11718 15.4917 7.43575 15.1846 7.73511C15.1055 7.81253 15.0264 7.89008 14.9475 7.96776C14.9284 7.98655 14.9093 8.00535 14.8896 8.02471C14.793 8.12042 14.6998 8.2173 14.6115 8.32064C14.4023 8.56504 14.1646 8.78488 13.9354 9.01037C13.7243 9.21814 13.5153 9.42409 13.3233 9.64965C13.2605 9.71863 13.1935 9.77917 13.1231 9.84054C13.0996 9.86164 13.076 9.88274 13.0517 9.90448C13.0035 9.94717 12.9545 9.98892 12.9048 10.0297C12.8062 10.1203 12.7339 10.194 12.7216 10.3308C12.7594 10.718 12.8248 11.1008 12.8893 11.4843C12.9112 11.6147 12.9328 11.7452 12.9543 11.8757C13.0154 12.2465 13.0768 12.6172 13.1389 12.9878C13.177 13.2153 13.2146 13.4429 13.2519 13.6705C13.2661 13.7568 13.2805 13.843 13.2951 13.9292C13.3156 14.05 13.3354 14.1708 13.3551 14.2917C13.3612 14.3268 13.3673 14.3618 13.3736 14.3979C13.4326 14.7691 13.4203 15.1158 13.2306 15.4472C13.2181 15.4695 13.2056 15.4918 13.1927 15.5148C13.0381 15.7585 12.7908 15.9081 12.5143 15.9815C12.4192 15.99 12.3295 15.9947 12.2345 15.9949C12.2109 15.9958 12.1872 15.9966 12.1628 15.9975C11.9548 15.9987 11.8019 15.9331 11.619 15.839C11.5862 15.8222 11.5534 15.8054 11.5195 15.788C11.4074 15.7295 11.296 15.6698 11.1848 15.6097C11.144 15.5878 11.1032 15.5659 11.0612 15.5433C10.7622 15.3822 10.4658 15.2166 10.1703 15.0492C9.89159 14.8916 9.61011 14.7397 9.32785 14.5887C9.03056 14.4292 8.73622 14.2648 8.44273 14.0984C8.41046 14.0802 8.37819 14.0619 8.34494 14.0431C8.31665 14.027 8.28836 14.0109 8.25922 13.9943C8.2334 13.9801 8.20758 13.9658 8.18098 13.9511C8.15692 13.9367 8.13286 13.9223 8.10806 13.9075C8.01847 13.8723 7.98383 13.8817 7.89448 13.9155C7.83601 13.9434 7.77839 13.9731 7.72143 14.004C7.68738 14.0223 7.65332 14.0407 7.61824 14.0597C7.58161 14.0797 7.54499 14.0997 7.50726 14.1203C7.4689 14.1411 7.43055 14.1619 7.39103 14.1834C7.10373 14.3397 6.81833 14.4994 6.53362 14.6604C6.23242 14.8305 5.92928 14.997 5.62569 15.1628C5.3941 15.2893 5.16301 15.4165 4.93363 15.547C4.89642 15.5681 4.85921 15.5893 4.82088 15.611C4.75189 15.6504 4.68301 15.6899 4.61425 15.7296C4.24509 15.9401 3.92112 16.0452 3.48951 15.9815C3.14465 15.8782 2.91013 15.6688 2.72401 15.3675C2.48138 14.8689 2.66936 14.2093 2.75821 13.6933C2.7818 13.5562 2.80479 13.419 2.82765 13.2818C2.87612 12.9913 2.92537 12.7009 2.9747 12.4105C3.03214 12.0723 3.08928 11.734 3.14564 11.3957C3.16833 11.2605 3.19156 11.1254 3.21482 10.9903C3.22861 10.9079 3.24238 10.8254 3.25611 10.743C3.26273 10.7055 3.26935 10.6679 3.27617 10.6292C3.2818 10.5947 3.28743 10.5603 3.29323 10.5248C3.29831 10.495 3.30339 10.4651 3.30863 10.4343C3.31191 10.2877 3.23389 10.1972 3.1367 10.0945C3.11548 10.072 3.09427 10.0495 3.07241 10.0264C3.04903 10.002 3.02565 9.97765 3.00156 9.95256C2.96472 9.91385 2.96472 9.91385 2.92714 9.87436C2.65837 9.59397 2.38206 9.32092 2.10496 9.04869C1.81153 8.75974 1.81153 8.75974 1.6867 8.61354C1.49023 8.38485 1.26908 8.17803 1.05424 7.96665C0.0248962 6.95389 0.0248963 6.95389 0 6.3748C0.00536799 6.0402 0.114759 5.73314 0.350853 5.48941C0.785641 5.10534 1.46287 5.10168 2.01433 5.01867C2.09666 5.00615 2.17898 4.99361 2.2613 4.98105C2.47674 4.94824 2.6922 4.91563 2.90767 4.88307C3.12717 4.84986 3.34663 4.81648 3.5661 4.7831C3.8127 4.7456 4.05931 4.70811 4.30594 4.67078C4.34338 4.66511 4.38082 4.65944 4.41939 4.6536C4.48902 4.64305 4.55865 4.63252 4.62828 4.622C4.68835 4.6129 4.74841 4.6037 4.80845 4.59437C4.87628 4.58409 4.9443 4.57501 5.01234 4.56614C5.10766 4.55543 5.10766 4.55543 5.16083 4.47046C5.17624 4.4367 5.19166 4.40294 5.20754 4.36816C5.23439 4.31101 5.23439 4.31101 5.26178 4.2527C5.2804 4.21095 5.29902 4.1692 5.3182 4.12618C5.33849 4.08229 5.35886 4.03842 5.37931 3.99459C5.42171 3.90335 5.46365 3.81192 5.5052 3.72029C5.5797 3.55609 5.65622 3.39285 5.73272 3.22957C5.78987 3.10748 5.84669 2.98525 5.90351 2.86301C6.08156 2.48071 6.26317 2.10008 6.44533 1.71971C6.47256 1.66282 6.49979 1.60593 6.52702 1.54904C6.54016 1.52158 6.5533 1.49413 6.56684 1.46584C6.64197 1.30845 6.71553 1.15047 6.7875 0.991615C6.81114 0.94009 6.81114 0.94009 6.83525 0.887524C6.86245 0.828004 6.88918 0.768268 6.91525 0.708251C7.0572 0.400164 7.29125 0.182275 7.60798 0.0586331C7.90231 -0.0389522 8.29319 -0.0124045 8.57115 0.120971Z" fill="#FFCB2A"/>
</svg>
